<svg width="45" height="32" viewBox="0 0 45 32" fill="none" xmlns="http://www.w3.org/2000/svg">
<path d="M19.5818 7.01082C13.9733 0.685374 5.481 -0.0156739 1.80045 0.000259181C0.796664 0.000259181 0 0.812856 0 1.80071V24.9197C0 25.9075 0.780724 26.7201 1.76858 26.7201C4.92334 26.752 11.679 27.3734 17.0803 31.5797C18.2753 32.5198 20.0279 31.7231 20.0279 30.2094V8.20581C20.0439 7.77561 19.8845 7.32949 19.5818 7.01082Z" fill="#696F7D"/>
<path d="M24.0781 8.2218V30.2254C24.0781 31.7391 25.8148 32.5358 27.0258 31.5957C32.4271 27.3894 39.1827 26.7679 42.3375 26.7361C43.3253 26.7201 44.1061 25.9235 44.1061 24.9356V1.8167C44.1061 0.812914 43.3094 0.0162504 42.3056 0.0162504C38.6251 0.000317268 30.1327 0.701365 24.5243 7.02681C24.2375 7.32954 24.0781 7.77567 24.0781 8.2218Z" fill="#696F7D"/>
</svg>
