<svg width="38" height="22" viewBox="0 0 38 22" fill="none" xmlns="http://www.w3.org/2000/svg">
<path d="M36.1931 3.67173V1.84093H34.385V0H32.5769H30.7688H28.9507H27.1426H25.3345H23.5264V1.84093H21.7183V3.67173H19.9102V5.50253V7.33333V9.16414V11.0051V12.8359V14.6667V16.4975V18.3283V20.1591V22H21.7183V20.1591H23.5264V18.3283H25.3345H27.1426H28.9507H30.7688H32.5769H34.385H36.1931V20.1591H38.0013V18.3283V16.4975V14.6667V12.8359V11.0051V9.16414V7.33333V5.50253V3.67173H36.1931Z" fill="#BCBCBC"/>
<path d="M16.283 1.84093H14.4749V0H12.6668H10.8587H9.05055H7.23244H5.42433H3.61622V1.84093H1.80811V3.67173H0V5.50253V7.33333V9.16414V11.0051V12.8359V14.6667V16.4975V18.3283V20.1591H1.80811V18.3283H3.61622H5.42433H7.23244H9.05055H10.8587H12.6668H14.4749V20.1591H16.283V22H18.0911V20.1591V18.3283V16.4975V14.6667V12.8359V11.0051V9.16414V7.33333V5.50253V3.67173H16.283V1.84093Z" fill="#BCBCBC"/>
</svg>
