<svg width="16" height="15" viewBox="0 0 16 15" fill="none" xmlns="http://www.w3.org/2000/svg">
<path d="M13.1237 10V11.9986H11.25V14H9.37368H7.5H5.62632H3.75V11.9986H1.87632V10H0V7.99859V6H1.87632H3.75H5.62632H7.5H9.37368H11.25H13.1237H15V7.99859V10H13.1237Z" fill="#D7C125"/>
<path d="M13.1237 5V3.00141H11.25V1H9.37368H7.5H5.62632H3.75V3.00141H1.87632V5H0V7.00141V9H1.87632H3.75H5.62632H7.5H9.37368H11.25H13.1237H15V7.00141V5H13.1237Z" fill="#D7C125"/>
<path d="M9.47129 0H7.58591H5.70053H3.8125V1.88538H5.70053H7.58591H9.47129H11.3593V0H9.47129Z" fill="#FFFF5A"/>
<path d="M3.81506 1.88617H1.92969V3.77155H3.81506V1.88617Z" fill="#FFFF5A"/>
<path d="M13.2448 1.88617H11.3594V3.77155H13.2448V1.88617Z" fill="#FFFF5A"/>
<path d="M15.1315 3.77374H13.2461V5.65912H15.1315V3.77374Z" fill="#FFFF5A"/>
<path d="M1.92444 3.77374H0.0390625V5.65912H1.92444V3.77374Z" fill="#FFFF5A"/>
<path d="M9.57286 15H7.68748H5.8021H3.91406V13.1146H5.8021H7.68748H9.57286H11.4609V15H9.57286Z" fill="#8C7D14"/>
<path d="M3.91663 13.1138H2.03125V11.2285H3.91663V13.1138Z" fill="#8C7D14"/>
<path d="M13.3463 13.1138H11.4609V11.2285H13.3463V13.1138Z" fill="#8C7D14"/>
<path d="M15.233 11.2263H13.3477V9.34088H15.233V11.2263Z" fill="#8C7D14"/>
<path d="M2.026 11.2263H0.140625V9.34088H2.026V11.2263Z" fill="#8C7D14"/>
</svg>
