<svg width="60" height="48" viewBox="0 0 60 48" fill="none" xmlns="http://www.w3.org/2000/svg">
<path d="M42.1909 22.5018H39.3789V25.3138H42.1909V22.5018Z" fill="#BCBCBC"/>
<path d="M39.3784 39.3798H36.5664V42.1918H39.3784V39.3798Z" fill="#BCBCBC"/>
<path d="M50.6323 42.1919H47.8203V45.0039H50.6323V42.1919Z" fill="#BCBCBC"/>
<path d="M45.0073 28.1288H42.1953V30.9408H45.0073V28.1288Z" fill="#BCBCBC"/>
<path d="M47.8159 33.7558H45.0039V36.5678H47.8159V33.7558Z" fill="#BCBCBC"/>
<path d="M36.5659 30.941H33.7539V33.756V36.568H36.5659H39.3809V33.756H42.1929V30.941H39.3809H36.5659Z" fill="#BCBCBC"/>
<path d="M47.8159 45.0067H45.0039V47.8187H47.8159V45.0067Z" fill="#BCBCBC"/>
<path d="M28.1284 22.5018H25.3164V25.3138H28.1284V22.5018Z" fill="#BCBCBC"/>
<path d="M28.126 36.5678H25.314V33.7558H28.126H30.9409V30.9408V28.1288H28.126V30.9408H25.314H22.502H19.687H16.875V33.7558V36.5678H19.687V33.7558H22.502V36.5678V39.3798H25.314H28.126H30.9409H33.7529V36.5678H30.9409H28.126Z" fill="#BCBCBC"/>
<path d="M22.4995 45.0067H19.6875V47.8187H22.4995V45.0067Z" fill="#BCBCBC"/>
<path d="M59.0698 11.251H56.2578V14.063H59.0698V11.251Z" fill="#BCBCBC"/>
<path d="M53.4448 2.81207H50.6328V5.62407H53.4448V2.81207Z" fill="#BCBCBC"/>
<path d="M50.6323 5.62701H47.8203V8.43901H50.6323V5.62701Z" fill="#BCBCBC"/>
<path d="M14.0659 0H11.2539V2.812H14.0659V0Z" fill="#BCBCBC"/>
<path d="M19.687 14.0631H16.875V16.8751H19.687V14.0631Z" fill="#BCBCBC"/>
<path d="M16.8784 11.251H14.0664V14.063H16.8784V11.251Z" fill="#BCBCBC"/>
<path d="M39.3784 5.62701H36.5664V8.43901H39.3784V5.62701Z" fill="#BCBCBC"/>
<path d="M30.9448 2.81207H28.1328V5.62407H30.9448V2.81207Z" fill="#BCBCBC"/>
<path d="M25.3159 11.251H22.5039V14.063H25.3159V11.251Z" fill="#BCBCBC"/>
<path d="M22.4995 8.43903H19.6875V11.251H22.4995V8.43903Z" fill="#BCBCBC"/>
<path d="M2.812 16.8778H0V19.6898H2.812V16.8778Z" fill="#BCBCBC"/>
<path d="M22.5025 19.69H25.3145H28.1265H30.9414H33.7534H36.5654H39.3804H42.1924H45.0044V16.878H42.1924H39.3804H36.5654V14.063H39.3804V11.251H36.5654H33.7534V14.063H30.9414V11.251H28.1265V14.063H25.3145V16.878H22.5025H19.6875V19.69H22.5025Z" fill="#BCBCBC"/>
<path d="M16.8784 16.8778H14.0664V19.6898H16.8784V16.8778Z" fill="#BCBCBC"/>
<path d="M16.8784 28.1288H14.0664V30.9408H16.8784V28.1288Z" fill="#BCBCBC"/>
<path d="M11.2534 36.5679H8.44141V39.3799H11.2534V36.5679Z" fill="#BCBCBC"/>
<path d="M16.8784 36.5679H14.0664V39.3799H16.8784V36.5679Z" fill="#BCBCBC"/>
</svg>
