<svg width="43" height="43" viewBox="0 0 43 43" fill="none" xmlns="http://www.w3.org/2000/svg">
<path d="M12.5957 0.150366C10.3081 0.258297 8.74589 0.623368 7.3802 1.16001C5.96678 1.71084 4.76878 2.45001 3.57681 3.64628C2.38484 4.84254 1.65082 6.04139 1.10386 7.45695C0.574521 8.82565 0.215897 10.3891 0.114846 12.678C0.013795 14.9669 -0.00856522 15.7027 0.00261489 21.5412C0.013795 27.3798 0.0395953 28.1116 0.150536 30.4053C0.259758 32.6924 0.623541 34.2542 1.16019 35.6203C1.71188 37.0337 2.4502 38.2313 3.6469 39.4237C4.8436 40.6161 6.0416 41.3484 7.46061 41.8962C8.82802 42.4247 10.392 42.785 12.6804 42.8852C14.9689 42.9854 15.7055 43.0086 21.5424 42.9974C27.3793 42.9863 28.1142 42.9605 30.4074 42.8517C32.7006 42.7429 34.2542 42.3765 35.6207 41.8425C37.0342 41.2895 38.2326 40.5524 39.4241 39.3553C40.6157 38.1582 41.3493 36.9585 41.8958 35.5421C42.4256 34.1747 42.7855 32.6108 42.8848 30.324C42.985 28.0291 43.0086 27.2964 42.9975 21.4587C42.9863 15.621 42.9601 14.8891 42.8513 12.5963C42.7425 10.3036 42.3783 8.74653 41.842 7.37955C41.2895 5.96614 40.552 4.76944 39.3558 3.57619C38.1595 2.38293 36.9589 1.64978 35.5429 1.10454C34.1746 0.575208 32.6116 0.214437 30.3231 0.115536C28.0346 0.0166359 27.298 -0.00873416 21.459 0.00244587C15.6199 0.0136259 14.8889 0.038566 12.5957 0.150366ZM12.8468 39.0173C10.7506 38.9262 9.61235 38.5779 8.85382 38.2863C7.84933 37.8993 7.13381 37.4315 6.37786 36.6829C5.62191 35.9342 5.15751 35.2161 4.76534 34.2138C4.47079 33.4553 4.11604 32.3184 4.018 30.2221C3.91135 27.9564 3.88899 27.2762 3.87652 21.5361C3.86405 15.796 3.88598 15.1166 3.98532 12.85C4.07476 10.7555 4.42521 9.61599 4.71632 8.8579C5.10333 7.85212 5.56945 7.13789 6.31981 6.38238C7.07017 5.62687 7.78612 5.1616 8.78932 4.76944C9.54699 4.4736 10.6839 4.12186 12.7793 4.0221C15.0467 3.9146 15.7262 3.8931 21.4654 3.88063C27.2047 3.86816 27.8858 3.88966 30.1541 3.98942C32.2486 4.08058 33.3886 4.42759 34.1458 4.72042C35.1507 5.10742 35.8658 5.57226 36.6214 6.3239C37.3769 7.07554 37.8426 7.78891 38.2347 8.79426C38.531 9.54977 38.8827 10.6863 38.9817 12.783C39.0896 15.0503 39.1141 15.7302 39.1244 21.469C39.1347 27.2078 39.1145 27.8893 39.0152 30.155C38.9236 32.2513 38.5762 33.3899 38.2842 34.1493C37.8972 35.1533 37.4306 35.8693 36.6798 36.6244C35.9291 37.3795 35.214 37.8447 34.2103 38.2369C33.4535 38.5323 32.3153 38.8849 30.2216 38.9847C27.9542 39.0913 27.2748 39.1137 21.5334 39.1261C15.7919 39.1386 15.1147 39.1154 12.8473 39.0173M30.3743 10.009C30.3751 10.5193 30.5273 11.0179 30.8115 11.4417C31.0958 11.8656 31.4993 12.1956 31.9711 12.39C32.4429 12.5845 32.9618 12.6347 33.4621 12.5342C33.9625 12.4338 34.4218 12.1872 34.782 11.8257C35.1422 11.4642 35.387 11.004 35.4857 10.5033C35.5843 10.0026 35.5322 9.48391 35.336 9.01281C35.1398 8.54172 34.8083 8.13939 34.3835 7.85671C33.9586 7.57402 33.4594 7.42368 32.9491 7.4247C32.265 7.42607 31.6094 7.69908 31.1266 8.18371C30.6437 8.66834 30.3731 9.3249 30.3743 10.009ZM10.4608 21.5214C10.4728 27.6189 15.4247 32.5505 21.5209 32.5389C27.6171 32.5273 32.5522 27.5759 32.5406 21.4784C32.529 15.381 27.5758 10.448 21.4788 10.4601C15.3817 10.4721 10.4491 15.4249 10.4608 21.5214ZM14.3334 21.5137C14.3306 20.0962 14.7482 18.7098 15.5333 17.5296C16.3185 16.3495 17.436 15.4287 18.7445 14.8837C20.053 14.3386 21.4937 14.1939 22.8845 14.4676C24.2753 14.7414 25.5537 15.4215 26.5579 16.4218C27.5622 17.4221 28.2473 18.6977 28.5266 20.0874C28.8059 21.4771 28.6668 22.9184 28.127 24.229C27.5871 25.5397 26.6708 26.6608 25.4937 27.4506C24.3167 28.2405 22.9319 28.6635 21.5144 28.6663C20.5732 28.6683 19.6409 28.4849 18.7706 28.1265C17.9003 27.7681 17.1091 27.2417 16.4423 26.5775C15.7754 25.9133 15.246 25.1242 14.8841 24.2554C14.5223 23.3865 14.3351 22.4549 14.3334 21.5137Z" fill="white"/>
</svg>
