<svg width="14" height="16" viewBox="0 0 14 16" fill="none" xmlns="http://www.w3.org/2000/svg">
<path d="M3.76892 1.89999H1.87891V3.79001H3.76892V1.89999Z" fill="#696F7D"/>
<path d="M7.54953 1.89999H9.44952V0H7.54953H5.65952H3.76953V1.89999H5.65952H7.54953Z" fill="#696F7D"/>
<path d="M11.34 3.79001V5.67999V7.57001H9.45001H7.56H5.67001H3.78H1.89001V5.67999V3.79001H0V5.67999V7.57001V9.45999V11.35V13.24H1.89001V15.13H3.78H5.67001H7.56H9.45001H11.34V13.24H13.23V11.35V9.45999V7.57001V5.67999V3.79001H11.34ZM5.66 13.25V11.36V9.47H7.55002V11.36V13.25H5.66Z" fill="#696F7D"/>
<path d="M11.3392 1.89999H9.44922V3.79001H11.3392V1.89999Z" fill="#696F7D"/>
</svg>
