<svg width="138" height="43" viewBox="0 0 138 43" fill="none" xmlns="http://www.w3.org/2000/svg">
<path d="M134.991 18.5953H132.586V20.9999H134.991V18.5953Z" fill="white"/>
<path d="M134.989 25.7981H132.584H130.191H127.786V28.2027V30.5958H125.393H122.989H120.595V28.2027H122.989H125.393V25.7981V23.3935H122.989V25.7981H120.595H118.191H115.798H113.393V23.3935H111V25.7981V28.2027H113.393V30.5958H115.798V33.0004H118.191H120.595H122.989H125.393H127.786H130.191H132.584V30.5958H134.989V28.2027H137.382V25.7981V23.3935H134.989V25.7981Z" fill="white"/>
<path d="M122.998 18.5953H120.594V20.9999H122.998V18.5953Z" fill="white"/>
<path d="M132.585 11.4046V9H130.192H127.788H125.395H122.99H120.597H118.192H115.799V11.4046H113.395V16.2023H115.799H118.192H120.597H122.99H125.395H127.788H130.192H132.585H134.99V11.4046H132.585Z" fill="white"/>
<path d="M137.393 13.7982H134.988V16.2028H137.393V13.7982Z" fill="white"/>
<path d="M113.405 13.7982H111V16.2028H113.405V13.7982Z" fill="white"/>
<path d="M3.24512 18H0.745117V15.5H3.24512V18ZM5.74512 15.5V18H3.24512V15.5H5.74512ZM8.24512 15.5V18H5.74512V15.5H8.24512ZM10.7451 15.5V18H8.24512V15.5H10.7451ZM13.2451 18V20.5H10.7451V18H13.2451ZM10.7451 18V15.5H13.2451V18H10.7451ZM8.24512 20.5H10.7451V23H8.24512V20.5ZM5.74512 23H8.24512V25.5H5.74512V23ZM3.24512 25.5H5.74512V28H3.24512V25.5ZM3.24512 30.5H0.745117V28H3.24512V30.5ZM3.24512 30.5V33H0.745117V30.5H3.24512ZM5.74512 30.5V33H3.24512V30.5H5.74512ZM8.24512 30.5V33H5.74512V30.5H8.24512ZM10.7451 30.5V33H8.24512V30.5H10.7451ZM10.7451 30.5H13.2451V33H10.7451V30.5ZM3.24512 27.9844V26.75L4.49512 28H3.26074C3.25033 28 3.24512 28 3.24512 28C3.24512 28 3.24512 28.0052 3.24512 28.0156V29.25L1.99512 28H3.22949C3.23991 28 3.24512 28 3.24512 28C3.24512 28 3.24512 27.9948 3.24512 27.9844ZM3.24512 30.4844C3.24512 30.4948 3.24512 30.5 3.24512 30.5C3.24512 30.5 3.25033 30.5 3.26074 30.5H4.49512L3.24512 31.75V30.5156C3.24512 30.5052 3.24512 30.5 3.24512 30.5C3.24512 30.5 3.23991 30.5 3.22949 30.5H1.99512L3.24512 29.25V30.4844ZM5.74512 25.4844V24.25L6.99512 25.5H5.76074C5.75033 25.5 5.74512 25.5 5.74512 25.5C5.74512 25.5 5.74512 25.5052 5.74512 25.5156V26.75L4.49512 25.5H5.72949C5.73991 25.5 5.74512 25.5 5.74512 25.5C5.74512 25.5 5.74512 25.4948 5.74512 25.4844ZM8.24512 22.9844V21.75L9.49512 23H8.26074C8.25033 23 8.24512 23 8.24512 23C8.24512 23 8.24512 23.0052 8.24512 23.0156V24.25L6.99512 23H8.22949C8.23991 23 8.24512 23 8.24512 23C8.24512 23 8.24512 22.9948 8.24512 22.9844ZM10.7451 20.5156V21.75L9.49512 20.5H10.7295C10.7399 20.5 10.7451 20.5 10.7451 20.5C10.7451 20.5 10.7451 20.4948 10.7451 20.4844V19.25L11.9951 20.5H10.7607C10.7503 20.5 10.7451 20.5 10.7451 20.5C10.7451 20.5 10.7451 20.5052 10.7451 20.5156ZM10.7451 18.0156C10.7451 18.0052 10.7451 18 10.7451 18C10.7451 18 10.7399 18 10.7295 18H9.49512L10.7451 16.75V17.9844C10.7451 17.9948 10.7451 18 10.7451 18C10.7451 18 10.7503 18 10.7607 18H11.9951L10.7451 19.25V18.0156ZM0.745117 18H3.24512V20.5H0.745117V18ZM13.2451 30.5H10.7451V28H13.2451V30.5ZM3.24512 18.0156V19.25L1.99512 18H3.22949C3.23991 18 3.24512 18 3.24512 18C3.24512 18 3.24512 17.9948 3.24512 17.9844V16.75L4.49512 18H3.26074C3.25033 18 3.24512 18 3.24512 18C3.24512 18 3.24512 18.0052 3.24512 18.0156ZM10.7451 30.4844V29.25L11.9951 30.5H10.7607C10.7503 30.5 10.7451 30.5 10.7451 30.5C10.7451 30.5 10.7451 30.5052 10.7451 30.5156V31.75L9.49512 30.5H10.7295C10.7399 30.5 10.7451 30.5 10.7451 30.5C10.7451 30.5 10.7451 30.4948 10.7451 30.4844ZM26.751 15.5H29.251V18H26.751V15.5ZM24.251 18H26.751V20.5H24.251V18ZM21.751 20.5H24.251V23H21.751V20.5ZM19.251 23H21.751V25.5H19.251V23ZM21.751 25.5H24.251V28H21.751V25.5ZM21.751 25.5156C21.751 25.5052 21.751 25.5 21.751 25.5C21.751 25.5 21.7458 25.5 21.7354 25.5H20.501L21.751 24.25V25.4844C21.751 25.4948 21.751 25.5 21.751 25.5C21.751 25.5 21.7562 25.5 21.7666 25.5H23.001L21.751 26.75V25.5156ZM19.251 22.9844C19.251 22.9948 19.251 23 19.251 23C19.251 23 19.2562 23 19.2666 23H20.501L19.251 24.25V23.0156C19.251 23.0052 19.251 23 19.251 23C19.251 23 19.2458 23 19.2354 23H18.001L19.251 21.75V22.9844ZM19.251 25.5156V26.75L18.001 25.5H19.2354C19.2458 25.5 19.251 25.5 19.251 25.5C19.251 25.5 19.251 25.4948 19.251 25.4844V24.25L20.501 25.5H19.2666C19.2562 25.5 19.251 25.5 19.251 25.5C19.251 25.5 19.251 25.5052 19.251 25.5156ZM21.751 22.9844V21.75L23.001 23H21.7666C21.7562 23 21.751 23 21.751 23C21.751 23 21.751 23.0052 21.751 23.0156V24.25L20.501 23H21.7354C21.7458 23 21.751 23 21.751 23C21.751 23 21.751 22.9948 21.751 22.9844ZM24.251 20.5156V21.75L23.001 20.5H24.2354C24.2458 20.5 24.251 20.5 24.251 20.5C24.251 20.5 24.251 20.4948 24.251 20.4844V19.25L25.501 20.5H24.2666C24.2562 20.5 24.251 20.5 24.251 20.5C24.251 20.5 24.251 20.5052 24.251 20.5156ZM26.751 18.0156V19.25L25.501 18H26.7354C26.7458 18 26.751 18 26.751 18C26.751 18 26.751 17.9948 26.751 17.9844V16.75L28.001 18H26.7666C26.7562 18 26.751 18 26.751 18C26.751 18 26.751 18.0052 26.751 18.0156ZM19.251 20.5V23H16.751V20.5H19.251ZM19.251 23V25.5H16.751V23H19.251ZM19.251 25.5V28H16.751V25.5H19.251ZM19.251 28V30.5H16.751V28H19.251ZM19.251 30.5V33H16.751V30.5H19.251ZM16.751 30.5V33H14.251V30.5H16.751ZM19.251 30.5H21.751V33H19.251V30.5ZM19.251 30.4844C19.251 30.4948 19.251 30.5 19.251 30.5C19.251 30.5 19.2562 30.5 19.2666 30.5H20.501L19.251 31.75V30.5156C19.251 30.5052 19.251 30.5 19.251 30.5C19.251 30.5 19.2458 30.5 19.2354 30.5H18.001L19.251 29.25V30.4844ZM16.751 30.4844V29.25L18.001 30.5H16.7666C16.7562 30.5 16.751 30.5 16.751 30.5C16.751 30.5 16.751 30.5052 16.751 30.5156V31.75L15.501 30.5H16.7354C16.7458 30.5 16.751 30.5 16.751 30.5C16.751 30.5 16.751 30.4948 16.751 30.4844ZM19.251 10.5V13H16.751V10.5H19.251ZM19.251 8V10.5H16.751V8H19.251ZM19.251 8H16.751V5.5H19.251V8ZM16.751 8V10.5H14.251V8H16.751ZM16.751 8.01562V9.25L15.501 8H16.7354C16.7458 8 16.751 8 16.751 8C16.751 8 16.751 7.99479 16.751 7.98437V6.75L18.001 8H16.7666C16.7562 8 16.751 8 16.751 8C16.751 8 16.751 8.00521 16.751 8.01562ZM16.751 10.4844C16.751 10.4948 16.751 10.5 16.751 10.5C16.751 10.5 16.7562 10.5 16.7666 10.5H18.001L16.751 11.75V10.5156C16.751 10.5052 16.751 10.5 16.751 10.5C16.751 10.5 16.7458 10.5 16.7354 10.5H15.501L16.751 9.25V10.4844ZM19.251 18V20.5H16.751V18H19.251ZM19.251 15.5V18H16.751V15.5H19.251ZM19.251 13V15.5H16.751V13H19.251ZM24.251 30.5V28H26.751V30.5H24.251ZM24.251 27.9844C24.251 27.9948 24.251 28 24.251 28C24.251 28 24.2562 28 24.2666 28H25.501L24.251 29.25V28.0156C24.251 28.0052 24.251 28 24.251 28C24.251 28 24.2458 28 24.2354 28H23.001L24.251 26.75V27.9844ZM26.751 30.5H29.251V33H26.751V30.5ZM26.751 30.4844C26.751 30.4948 26.751 30.5 26.751 30.5C26.751 30.5 26.7562 30.5 26.7666 30.5H28.001L26.751 31.75V30.5156C26.751 30.5052 26.751 30.5 26.751 30.5C26.751 30.5 26.7458 30.5 26.7354 30.5H25.501L26.751 29.25V30.4844ZM35.2471 28V30.5H32.7471V28H35.2471ZM35.2471 25.5V28H32.7471V25.5H35.2471ZM35.2471 23V25.5H32.7471V23H35.2471ZM35.2471 20.5V23H32.7471V20.5H35.2471ZM35.2471 18V20.5H32.7471V18H35.2471ZM35.2471 15.5V18H32.7471V15.5H35.2471ZM35.2471 13V15.5H32.7471V13H35.2471ZM35.2471 10.5V13H32.7471V10.5H35.2471ZM37.7471 30.5V33H35.2471V30.5H37.7471ZM37.7471 8V10.5H35.2471V8H37.7471ZM40.2471 8V10.5H37.7471V8H40.2471ZM42.7471 8V10.5H40.2471V8H42.7471ZM47.7471 13H45.2471V10.5H47.7471V13ZM47.7471 13V15.5H45.2471V13H47.7471ZM47.7471 15.5V18H45.2471V15.5H47.7471ZM42.7471 30.5V33H40.2471V30.5H42.7471ZM40.2471 30.5V33H37.7471V30.5H40.2471ZM42.7471 18V20.5H40.2471V18H42.7471ZM40.2471 18V20.5H37.7471V18H40.2471ZM37.7471 18V20.5H35.2471V18H37.7471ZM42.7471 8H45.2471V10.5H42.7471V8ZM42.7471 30.5H45.2471V33H42.7471V30.5ZM42.7471 18H45.2471V20.5H42.7471V18ZM45.2471 10.5156C45.2471 10.5052 45.2471 10.5 45.2471 10.5C45.2471 10.5 45.2419 10.5 45.2314 10.5H43.9971L45.2471 9.25V10.4844C45.2471 10.4948 45.2471 10.5 45.2471 10.5C45.2471 10.5 45.2523 10.5 45.2627 10.5H46.4971L45.2471 11.75V10.5156ZM45.2471 17.9844V16.75L46.4971 18H45.2627C45.2523 18 45.2471 18 45.2471 18C45.2471 18 45.2471 18.0052 45.2471 18.0156V19.25L43.9971 18H45.2314C45.2419 18 45.2471 18 45.2471 18C45.2471 18 45.2471 17.9948 45.2471 17.9844ZM35.2471 30.5156C35.2471 30.5052 35.2471 30.5 35.2471 30.5C35.2471 30.5 35.2419 30.5 35.2314 30.5H33.9971L35.2471 29.25V30.4844C35.2471 30.4948 35.2471 30.5 35.2471 30.5C35.2471 30.5 35.2523 30.5 35.2627 30.5H36.4971L35.2471 31.75V30.5156ZM35.2471 20.4844V19.25L36.4971 20.5H35.2627C35.2523 20.5 35.2471 20.5 35.2471 20.5C35.2471 20.5 35.2471 20.5052 35.2471 20.5156V21.75L33.9971 20.5H35.2314C35.2419 20.5 35.2471 20.5 35.2471 20.5C35.2471 20.5 35.2471 20.4948 35.2471 20.4844ZM35.2471 18.0156C35.2471 18.0052 35.2471 18 35.2471 18C35.2471 18 35.2419 18 35.2314 18H33.9971L35.2471 16.75V17.9844C35.2471 17.9948 35.2471 18 35.2471 18C35.2471 18 35.2523 18 35.2627 18H36.4971L35.2471 19.25V18.0156ZM35.2471 10.4844V9.25L36.4971 10.5H35.2627C35.2523 10.5 35.2471 10.5 35.2471 10.5C35.2471 10.5 35.2471 10.5052 35.2471 10.5156V11.75L33.9971 10.5H35.2314C35.2419 10.5 35.2471 10.5 35.2471 10.5C35.2471 10.5 35.2471 10.4948 35.2471 10.4844ZM50.2471 25.5V28H47.7471V25.5H50.2471ZM45.2471 28H47.7471V30.5H45.2471V28ZM47.7471 28.0156V29.25L46.4971 28H47.7314C47.7419 28 47.7471 28 47.7471 28C47.7471 28 47.7471 27.9948 47.7471 27.9844V26.75L48.9971 28H47.7627C47.7523 28 47.7471 28 47.7471 28C47.7471 28 47.7471 28.0052 47.7471 28.0156ZM45.2471 20.5H47.7471V23H45.2471V20.5ZM50.2471 25.5H47.7471V23H50.2471V25.5ZM47.7471 22.9844C47.7471 22.9948 47.7471 23 47.7471 23C47.7471 23 47.7523 23 47.7627 23H48.9971L47.7471 24.25V23.0156C47.7471 23.0052 47.7471 23 47.7471 23C47.7471 23 47.7419 23 47.7314 23H46.4971L47.7471 21.75V22.9844ZM45.2471 20.5156C45.2471 20.5052 45.2471 20.5 45.2471 20.5C45.2471 20.5 45.2419 20.5 45.2314 20.5H43.9971L45.2471 19.25V20.4844C45.2471 20.4948 45.2471 20.5 45.2471 20.5C45.2471 20.5 45.2523 20.5 45.2627 20.5H46.4971L45.2471 21.75V20.5156ZM45.2471 30.4844V29.25L46.4971 30.5H45.2627C45.2523 30.5 45.2471 30.5 45.2471 30.5C45.2471 30.5 45.2471 30.5052 45.2471 30.5156V31.75L43.9971 30.5H45.2314C45.2419 30.5 45.2471 30.5 45.2471 30.5C45.2471 30.5 45.2471 30.4948 45.2471 30.4844ZM32.7471 8V10.5H30.2471V8H32.7471ZM32.7471 10.5156C32.7471 10.5052 32.7471 10.5 32.7471 10.5C32.7471 10.5 32.7419 10.5 32.7314 10.5H31.4971L32.7471 9.25V10.4844C32.7471 10.4948 32.7471 10.5 32.7471 10.5C32.7471 10.5 32.7523 10.5 32.7627 10.5H33.9971L32.7471 11.75V10.5156ZM35.2471 8V10.5H32.7471V8H35.2471ZM32.7471 30.5V33H30.2471V30.5H32.7471ZM32.7471 30.4844V29.25L33.9971 30.5H32.7627C32.7523 30.5 32.7471 30.5 32.7471 30.5C32.7471 30.5 32.7471 30.5052 32.7471 30.5156V31.75L31.4971 30.5H32.7314C32.7419 30.5 32.7471 30.5 32.7471 30.5C32.7471 30.5 32.7471 30.4948 32.7471 30.4844ZM35.2471 30.5V33H32.7471V30.5H35.2471ZM58.7627 15.5V18H56.2627V15.5H58.7627ZM53.7627 18H56.2627V20.5H53.7627V18ZM58.7627 15.5H61.2627V18H58.7627V15.5ZM56.2627 18.0156V19.25L55.0127 18H56.2471C56.2575 18 56.2627 18 56.2627 18C56.2627 18 56.2627 17.9948 56.2627 17.9844V16.75L57.5127 18H56.2783C56.2679 18 56.2627 18 56.2627 18C56.2627 18 56.2627 18.0052 56.2627 18.0156ZM53.7627 20.5156V21.75L52.5127 20.5H53.7471C53.7575 20.5 53.7627 20.5 53.7627 20.5C53.7627 20.5 53.7627 20.4948 53.7627 20.4844V19.25L55.0127 20.5H53.7783C53.7679 20.5 53.7627 20.5 53.7627 20.5C53.7627 20.5 53.7627 20.5052 53.7627 20.5156ZM53.7627 18.0156C53.7627 18.0052 53.7627 18 53.7627 18C53.7627 18 53.7575 18 53.7471 18H52.5127L53.7627 16.75V17.9844C53.7627 17.9948 53.7627 18 53.7627 18C53.7627 18 53.7679 18 53.7783 18H55.0127L53.7627 19.25V18.0156ZM53.7627 20.5V23H51.2627V20.5H53.7627ZM53.7627 23V25.5H51.2627V23H53.7627ZM53.7627 25.5V28H51.2627V25.5H53.7627ZM53.7627 28V30.5H51.2627V28H53.7627ZM53.7627 18V20.5H51.2627V18H53.7627ZM53.7627 18H51.2627V15.5H53.7627V18ZM53.7627 30.5V33H51.2627V30.5H53.7627ZM51.2627 18V20.5H48.7627V18H51.2627ZM51.2627 30.5V33H48.7627V30.5H51.2627ZM53.7627 30.5H56.2627V33H53.7627V30.5ZM51.2627 17.9844V16.75L52.5127 18H51.2783C51.2679 18 51.2627 18 51.2627 18C51.2627 18 51.2627 18.0052 51.2627 18.0156V19.25L50.0127 18H51.2471C51.2575 18 51.2627 18 51.2627 18C51.2627 18 51.2627 17.9948 51.2627 17.9844ZM53.7627 30.4844C53.7627 30.4948 53.7627 30.5 53.7627 30.5C53.7627 30.5 53.7679 30.5 53.7783 30.5H55.0127L53.7627 31.75V30.5156C53.7627 30.5052 53.7627 30.5 53.7627 30.5C53.7627 30.5 53.7575 30.5 53.7471 30.5H52.5127L53.7627 29.25V30.4844ZM51.2627 30.4844V29.25L52.5127 30.5H51.2783C51.2679 30.5 51.2627 30.5 51.2627 30.5C51.2627 30.5 51.2627 30.5052 51.2627 30.5156V31.75L50.0127 30.5H51.2471C51.2575 30.5 51.2627 30.5 51.2627 30.5C51.2627 30.5 51.2627 30.4948 51.2627 30.4844ZM51.2627 20.5156C51.2627 20.5052 51.2627 20.5 51.2627 20.5C51.2627 20.5 51.2575 20.5 51.2471 20.5H50.0127L51.2627 19.25V20.4844C51.2627 20.4948 51.2627 20.5 51.2627 20.5C51.2627 20.5 51.2679 20.5 51.2783 20.5H52.5127L51.2627 21.75V20.5156ZM66.2725 20.5V23H63.7725V20.5H66.2725ZM66.2725 23V25.5H63.7725V23H66.2725ZM66.2725 25.5V28H63.7725V25.5H66.2725ZM66.2725 28V30.5H63.7725V28H66.2725ZM66.2725 18V20.5H63.7725V18H66.2725ZM66.2725 18H63.7725V15.5H66.2725V18ZM63.7725 10.5H66.2725V13H63.7725V10.5ZM66.2725 30.5V33H63.7725V30.5H66.2725ZM63.7725 18V20.5H61.2725V18H63.7725ZM63.7725 30.5V33H61.2725V30.5H63.7725ZM66.2725 30.5H68.7725V33H66.2725V30.5ZM63.7725 17.9844V16.75L65.0225 18H63.7881C63.7777 18 63.7725 18 63.7725 18C63.7725 18 63.7725 18.0052 63.7725 18.0156V19.25L62.5225 18H63.7568C63.7673 18 63.7725 18 63.7725 18C63.7725 18 63.7725 17.9948 63.7725 17.9844ZM66.2725 30.4844C66.2725 30.4948 66.2725 30.5 66.2725 30.5C66.2725 30.5 66.2777 30.5 66.2881 30.5H67.5225L66.2725 31.75V30.5156C66.2725 30.5052 66.2725 30.5 66.2725 30.5C66.2725 30.5 66.2673 30.5 66.2568 30.5H65.0225L66.2725 29.25V30.4844ZM63.7725 30.4844V29.25L65.0225 30.5H63.7881C63.7777 30.5 63.7725 30.5 63.7725 30.5C63.7725 30.5 63.7725 30.5052 63.7725 30.5156V31.75L62.5225 30.5H63.7568C63.7673 30.5 63.7725 30.5 63.7725 30.5C63.7725 30.5 63.7725 30.4948 63.7725 30.4844ZM63.7725 20.5156C63.7725 20.5052 63.7725 20.5 63.7725 20.5C63.7725 20.5 63.7673 20.5 63.7568 20.5H62.5225L63.7725 19.25V20.4844C63.7725 20.4948 63.7725 20.5 63.7725 20.5C63.7725 20.5 63.7777 20.5 63.7881 20.5H65.0225L63.7725 21.75V20.5156ZM79.7686 15.5V18H77.2686V15.5H79.7686ZM74.7686 18H77.2686V20.5H74.7686V18ZM74.7686 20.5V23H72.2686V20.5H74.7686ZM74.7686 23V25.5H72.2686V23H74.7686ZM74.7686 25.5V28H72.2686V25.5H74.7686ZM74.7686 18V20.5H72.2686V18H74.7686ZM74.7686 18H72.2686V15.5H74.7686V18ZM79.7686 15.5H82.2686V18H79.7686V15.5ZM84.7686 20.5H82.2686V18H84.7686V20.5ZM84.7686 20.5V23H82.2686V20.5H84.7686ZM84.7686 23V25.5H82.2686V23H84.7686ZM84.7686 25.5V28H82.2686V25.5H84.7686ZM82.2686 17.9844C82.2686 17.9948 82.2686 18 82.2686 18C82.2686 18 82.2738 18 82.2842 18H83.5186L82.2686 19.25V18.0156C82.2686 18.0052 82.2686 18 82.2686 18C82.2686 18 82.2633 18 82.2529 18H81.0186L82.2686 16.75V17.9844ZM74.7686 17.9844C74.7686 17.9948 74.7686 18 74.7686 18C74.7686 18 74.7738 18 74.7842 18H76.0186L74.7686 19.25V18.0156C74.7686 18.0052 74.7686 18 74.7686 18C74.7686 18 74.7633 18 74.7529 18H73.5186L74.7686 16.75V17.9844ZM77.2686 17.9844V16.75L78.5186 18H77.2842C77.2738 18 77.2686 18 77.2686 18C77.2686 18 77.2686 18.0052 77.2686 18.0156V19.25L76.0186 18H77.2529C77.2633 18 77.2686 18 77.2686 18C77.2686 18 77.2686 17.9948 77.2686 17.9844ZM74.7686 20.4844V19.25L76.0186 20.5H74.7842C74.7738 20.5 74.7686 20.5 74.7686 20.5C74.7686 20.5 74.7686 20.5052 74.7686 20.5156V21.75L73.5186 20.5H74.7529C74.7633 20.5 74.7686 20.5 74.7686 20.5C74.7686 20.5 74.7686 20.4948 74.7686 20.4844ZM74.7686 28V30.5H72.2686V28H74.7686ZM74.7686 30.5V33H72.2686V30.5H74.7686ZM72.2686 18V20.5H69.7686V18H72.2686ZM72.2686 30.5V33H69.7686V30.5H72.2686ZM74.7686 30.5H77.2686V33H74.7686V30.5ZM72.2686 17.9844V16.75L73.5186 18H72.2842C72.2738 18 72.2686 18 72.2686 18C72.2686 18 72.2686 18.0052 72.2686 18.0156V19.25L71.0186 18H72.2529C72.2633 18 72.2686 18 72.2686 18C72.2686 18 72.2686 17.9948 72.2686 17.9844ZM74.7686 30.4844C74.7686 30.4948 74.7686 30.5 74.7686 30.5C74.7686 30.5 74.7738 30.5 74.7842 30.5H76.0186L74.7686 31.75V30.5156C74.7686 30.5052 74.7686 30.5 74.7686 30.5C74.7686 30.5 74.7633 30.5 74.7529 30.5H73.5186L74.7686 29.25V30.4844ZM72.2686 30.4844V29.25L73.5186 30.5H72.2842C72.2738 30.5 72.2686 30.5 72.2686 30.5C72.2686 30.5 72.2686 30.5052 72.2686 30.5156V31.75L71.0186 30.5H72.2529C72.2633 30.5 72.2686 30.5 72.2686 30.5C72.2686 30.5 72.2686 30.4948 72.2686 30.4844ZM72.2686 20.5156C72.2686 20.5052 72.2686 20.5 72.2686 20.5C72.2686 20.5 72.2633 20.5 72.2529 20.5H71.0186L72.2686 19.25V20.4844C72.2686 20.4948 72.2686 20.5 72.2686 20.5C72.2686 20.5 72.2738 20.5 72.2842 20.5H73.5186L72.2686 21.75V20.5156ZM84.7686 28V30.5H82.2686V28H84.7686ZM84.7686 30.5V33H82.2686V30.5H84.7686ZM82.2686 30.5V33H79.7686V30.5H82.2686ZM84.7686 30.5H87.2686V33H84.7686V30.5ZM84.7686 30.4844C84.7686 30.4948 84.7686 30.5 84.7686 30.5C84.7686 30.5 84.7738 30.5 84.7842 30.5H86.0186L84.7686 31.75V30.5156C84.7686 30.5052 84.7686 30.5 84.7686 30.5C84.7686 30.5 84.7633 30.5 84.7529 30.5H83.5186L84.7686 29.25V30.4844ZM82.2686 30.4844V29.25L83.5186 30.5H82.2842C82.2738 30.5 82.2686 30.5 82.2686 30.5C82.2686 30.5 82.2686 30.5052 82.2686 30.5156V31.75L81.0186 30.5H82.2529C82.2633 30.5 82.2686 30.5 82.2686 30.5C82.2686 30.5 82.2686 30.4948 82.2686 30.4844ZM89.7588 20.5V23H87.2588V20.5H89.7588ZM89.7588 20.5H87.2588V18H89.7588V20.5ZM89.7588 23V25.5H87.2588V23H89.7588ZM92.2588 25.5V28H89.7588V25.5H92.2588ZM94.7588 25.5V28H92.2588V25.5H94.7588ZM94.7588 25.5H97.2588V28H94.7588V25.5ZM99.7588 20.5V23H97.2588V20.5H99.7588ZM99.7588 20.5H97.2588V18H99.7588V20.5ZM99.7588 23V25.5H97.2588V23H99.7588ZM92.2588 15.5V18H89.7588V15.5H92.2588ZM94.7588 15.5V18H92.2588V15.5H94.7588ZM94.7588 15.5H97.2588V18H94.7588V15.5ZM99.7588 15.5H102.259V18H99.7588V15.5ZM87.2588 28H89.7588V30.5H87.2588V28ZM92.2588 30.5V33H89.7588V30.5H92.2588ZM94.7588 30.5V33H92.2588V30.5H94.7588ZM97.2588 30.5V33H94.7588V30.5H97.2588ZM97.2588 30.5H99.7588V33H97.2588V30.5ZM102.259 35.5H99.7588V33H102.259V35.5ZM89.7588 35.5H87.2588V33H89.7588V35.5ZM102.259 35.5V38H99.7588V35.5H102.259ZM89.7588 35.5V38H87.2588V35.5H89.7588ZM92.2588 38V40.5H89.7588V38H92.2588ZM94.7588 38V40.5H92.2588V38H94.7588ZM97.2588 38V40.5H94.7588V38H97.2588ZM97.2588 38H99.7588V40.5H97.2588V38ZM89.7588 30.4844C89.7588 30.4948 89.7588 30.5 89.7588 30.5C89.7588 30.5 89.764 30.5 89.7744 30.5H91.0088L89.7588 31.75V30.5156C89.7588 30.5052 89.7588 30.5 89.7588 30.5C89.7588 30.5 89.7536 30.5 89.7432 30.5H88.5088L89.7588 29.25V30.4844ZM89.7588 28.0156V29.25L88.5088 28H89.7432C89.7536 28 89.7588 28 89.7588 28C89.7588 28 89.7588 27.9948 89.7588 27.9844V26.75L91.0088 28H89.7744C89.764 28 89.7588 28 89.7588 28C89.7588 28 89.7588 28.0052 89.7588 28.0156ZM89.7588 25.4844C89.7588 25.4948 89.7588 25.5 89.7588 25.5C89.7588 25.5 89.764 25.5 89.7744 25.5H91.0088L89.7588 26.75V25.5156C89.7588 25.5052 89.7588 25.5 89.7588 25.5C89.7588 25.5 89.7536 25.5 89.7432 25.5H88.5088L89.7588 24.25V25.4844ZM89.7588 17.9844V16.75L91.0088 18H89.7744C89.764 18 89.7588 18 89.7588 18C89.7588 18 89.7588 18.0052 89.7588 18.0156V19.25L88.5088 18H89.7432C89.7536 18 89.7588 18 89.7588 18C89.7588 18 89.7588 17.9948 89.7588 17.9844ZM97.2588 25.4844V24.25L98.5088 25.5H97.2744C97.264 25.5 97.2588 25.5 97.2588 25.5C97.2588 25.5 97.2588 25.5052 97.2588 25.5156V26.75L96.0088 25.5H97.2432C97.2536 25.5 97.2588 25.5 97.2588 25.5C97.2588 25.5 97.2588 25.4948 97.2588 25.4844ZM97.2588 17.9844C97.2588 17.9948 97.2588 18 97.2588 18C97.2588 18 97.264 18 97.2744 18H98.5088L97.2588 19.25V18.0156C97.2588 18.0052 97.2588 18 97.2588 18C97.2588 18 97.2536 18 97.2432 18H96.0088L97.2588 16.75V17.9844ZM99.7588 17.9844V16.75L101.009 18H99.7744C99.764 18 99.7588 18 99.7588 18C99.7588 18 99.7588 18.0052 99.7588 18.0156V19.25L98.5088 18H99.7432C99.7536 18 99.7588 18 99.7588 18C99.7588 18 99.7588 17.9948 99.7588 17.9844ZM89.7588 33.0156V34.25L88.5088 33H89.7432C89.7536 33 89.7588 33 89.7588 33C89.7588 33 89.7588 32.9948 89.7588 32.9844V31.75L91.0088 33H89.7744C89.764 33 89.7588 33 89.7588 33C89.7588 33 89.7588 33.0052 89.7588 33.0156ZM89.7588 37.9844C89.7588 37.9948 89.7588 38 89.7588 38C89.7588 38 89.764 38 89.7744 38H91.0088L89.7588 39.25V38.0156C89.7588 38.0052 89.7588 38 89.7588 38C89.7588 38 89.7536 38 89.7432 38H88.5088L89.7588 36.75V37.9844ZM99.7588 33.0156C99.7588 33.0052 99.7588 33 99.7588 33C99.7588 33 99.7536 33 99.7432 33H98.5088L99.7588 31.75V32.9844C99.7588 32.9948 99.7588 33 99.7588 33C99.7588 33 99.764 33 99.7744 33H101.009L99.7588 34.25V33.0156ZM99.7588 37.9844V36.75L101.009 38H99.7744C99.764 38 99.7588 38 99.7588 38C99.7588 38 99.7588 38.0052 99.7588 38.0156V39.25L98.5088 38H99.7432C99.7536 38 99.7588 38 99.7588 38C99.7588 38 99.7588 37.9948 99.7588 37.9844ZM99.7588 15.5V13H102.259V15.5H99.7588Z" fill="white"/>
</svg>
