<svg width="36" height="41" viewBox="0 0 36 41" fill="none" xmlns="http://www.w3.org/2000/svg">
<g clip-path="url(#clip0_59_998)">
<path d="M9.05114 0.279829C9.0849 0.125284 9.2405 0 9.39868 0H17.1321C17.2903 0 17.3912 0.125284 17.3574 0.279829L15.7073 7.83521C15.6736 7.98975 15.518 8.11504 15.3598 8.11504H7.62635C7.46816 8.11504 7.36729 7.98975 7.40104 7.83521L9.05114 0.279829Z" fill="white"/>
<path d="M19.0752 0.279829C19.1089 0.125284 19.2645 0 19.4227 0H32.3118C34.2101 0 35.4206 1.5034 35.0156 3.35795L30.4931 24.0653C30.4593 24.2198 30.3037 24.3451 30.1455 24.3451H22.8171C22.6589 24.3451 22.5033 24.4704 22.4696 24.6249L20.8195 32.1803C20.7857 32.3349 20.8866 32.4601 21.0448 32.4601H28.3732C28.5314 32.4601 28.6323 32.5854 28.5985 32.74L26.9484 40.2954C26.9146 40.4499 26.759 40.5752 26.6009 40.5752H18.8674C18.7092 40.5752 18.6083 40.4499 18.6421 40.2954L20.2922 32.74C20.3259 32.5854 20.2251 32.4601 20.0669 32.4601H12.3334C12.1752 32.4601 12.0743 32.3349 12.1081 32.1803L13.7582 24.6249C13.7919 24.4704 13.9475 24.3451 14.1057 24.3451H21.8392C21.9974 24.3451 22.153 24.2198 22.1867 24.0653L25.3036 9.79401C25.5061 8.86674 24.9009 8.11504 23.9517 8.11504H17.6504C17.4922 8.11504 17.3913 7.98975 17.4251 7.83521L19.0752 0.279829Z" fill="white"/>
<path d="M7.25914 9.79401C7.10095 9.79401 6.94536 9.91929 6.9116 10.0738L0.311196 40.2954C0.277442 40.4499 0.378318 40.5752 0.536505 40.5752H8.26998C8.42816 40.5752 8.58376 40.4499 8.61752 40.2954L15.2179 10.0738C15.2517 9.91929 15.1508 9.79401 14.9926 9.79401H7.25914Z" fill="white"/>
</g>
<defs>
<clipPath id="clip0_59_998">
<rect width="36" height="41" fill="white"/>
</clipPath>
</defs>
</svg>
