<svg width="71" height="25" viewBox="0 0 71 25" fill="none" xmlns="http://www.w3.org/2000/svg">
<path d="M18.1826 20.4514H15.9141V22.7314H18.1826H20.4511V20.4514H18.1826Z" fill="#BCBCBC"/>
<path d="M22.7305 13.6343V15.9144H24.999V13.6343V11.3657V9.08563H22.7305V11.3657V13.6343Z" fill="#BCBCBC"/>
<path d="M4.55353 6.81709V4.54858H2.27344V6.81709V9.0856H4.55353V6.81709Z" fill="#BCBCBC"/>
<path d="M20.4531 9.0856H22.7332V6.81709V4.54858H20.4531V6.81709V9.0856Z" fill="#BCBCBC"/>
<path d="M11.3623 22.7315H9.09375V25H11.3623H13.6308H15.9109V22.7315H13.6308H11.3623Z" fill="#BCBCBC"/>
<path d="M18.1826 4.54853H20.4511V2.26843H18.1826H15.9141V4.54853H18.1826Z" fill="#BCBCBC"/>
<path d="M9.09942 4.54853V2.26843H6.81932H4.55078V4.54853H6.81932H9.09942Z" fill="#BCBCBC"/>
<path d="M13.6308 2.26851H15.9109V0H13.6308H11.3623H9.09375V2.26851H11.3623H13.6308Z" fill="#BCBCBC"/>
<path d="M20.4531 18.1829V20.4514H22.7332V18.1829V15.9144H20.4531V18.1829Z" fill="#BCBCBC"/>
<path d="M4.55353 15.9144H2.27344V18.1829V20.4514H4.55353V18.1829V15.9144Z" fill="#BCBCBC"/>
<path d="M2.26851 11.3657V9.08563H0V11.3657V13.6343V15.9144H2.26851V13.6343V11.3657Z" fill="#BCBCBC"/>
<path d="M6.81932 20.4514H4.55078V22.7314H6.81932H9.09942V20.4514H6.81932Z" fill="#BCBCBC"/>
<path d="M29.5498 20.4514H27.2812V22.7314H29.5498H31.8183V20.4514H29.5498Z" fill="#BCBCBC"/>
<path d="M34.0977 13.6343V15.9144H36.3662V13.6343V11.3657V9.08563H34.0977V11.3657V13.6343Z" fill="#BCBCBC"/>
<path d="M31.8125 9.0856H34.0926V6.81709V4.54858H31.8125V6.81709V9.0856Z" fill="#BCBCBC"/>
<path d="M22.7332 22.7315H20.4531V25H22.7332H25.0017H27.2818V22.7315H25.0017H22.7332Z" fill="#BCBCBC"/>
<path d="M29.5498 4.54853H31.8183V2.26843H29.5498H27.2812V4.54853H29.5498Z" fill="#BCBCBC"/>
<path d="M25.0017 2.26851H27.2818V0H25.0017H22.7332H20.4531V2.26851H22.7332H25.0017Z" fill="#BCBCBC"/>
<path d="M31.8125 18.1829V20.4514H34.0926V18.1829V15.9144H31.8125V18.1829Z" fill="#BCBCBC"/>
<path d="M40.9169 20.4514H38.6484V22.7314H40.9169H43.1855V20.4514H40.9169Z" fill="#BCBCBC"/>
<path d="M45.4648 13.6343V15.9144H47.7334V13.6343V11.3657V9.08563H45.4648V11.3657V13.6343Z" fill="#BCBCBC"/>
<path d="M43.1797 9.0856H45.4598V6.81709V4.54858H43.1797V6.81709V9.0856Z" fill="#BCBCBC"/>
<path d="M34.0926 22.7315H31.8125V25H34.0926H36.3611H38.6412V22.7315H36.3611H34.0926Z" fill="#BCBCBC"/>
<path d="M40.9169 4.54853H43.1855V2.26843H40.9169H38.6484V4.54853H40.9169Z" fill="#BCBCBC"/>
<path d="M36.3611 2.26851H38.6412V0H36.3611H34.0926H31.8125V2.26851H34.0926H36.3611Z" fill="#BCBCBC"/>
<path d="M43.1797 18.1829V20.4514H45.4598V18.1829V15.9144H43.1797V18.1829Z" fill="#BCBCBC"/>
<path d="M52.2803 20.4514H50.0117V22.7314H52.2803H54.5488V20.4514H52.2803Z" fill="#BCBCBC"/>
<path d="M56.832 13.6343V15.9144H59.1005V13.6343V11.3657V9.08563H56.832V11.3657V13.6343Z" fill="#BCBCBC"/>
<path d="M54.5508 9.0856H56.8309V6.81709V4.54858H54.5508V6.81709V9.0856Z" fill="#BCBCBC"/>
<path d="M45.4598 22.7315H43.1797V25H45.4598H47.7283H50.0084V22.7315H47.7283H45.4598Z" fill="#BCBCBC"/>
<path d="M52.2803 4.54853H54.5488V2.26843H52.2803H50.0117V4.54853H52.2803Z" fill="#BCBCBC"/>
<path d="M47.7283 2.26851H50.0084V0H47.7283H45.4598H43.1797V2.26851H45.4598H47.7283Z" fill="#BCBCBC"/>
<path d="M54.5508 18.1829V20.4514H56.8309V18.1829V15.9144H54.5508V18.1829Z" fill="#BCBCBC"/>
<path d="M61.3633 20.4514V22.7314H63.6434H65.9119V20.4514H63.6434H61.3633Z" fill="#BCBCBC"/>
<path d="M65.9141 9.0856H68.1942V6.81709V4.54858H65.9141V6.81709V9.0856Z" fill="#BCBCBC"/>
<path d="M56.8309 22.7315H54.5508V25H56.8309H59.0994H61.3679V22.7315H59.0994H56.8309Z" fill="#BCBCBC"/>
<path d="M63.6434 4.54853H65.9119V2.26843H63.6434H61.3633V4.54853H63.6434Z" fill="#BCBCBC"/>
<path d="M59.0994 2.26851H61.3679V0H59.0994H56.8309H54.5508V2.26851H56.8309H59.0994Z" fill="#BCBCBC"/>
<path d="M68.1992 9.08563V11.3657V13.6343V15.9144H70.4677V13.6343V11.3657V9.08563H68.1992Z" fill="#BCBCBC"/>
<path d="M65.9141 18.1829V20.4514H68.1942V18.1829V15.9144H65.9141V18.1829Z" fill="#BCBCBC"/>
</svg>
